:SAMPLES-PER-SECOND 30
:FULLY-SPECIFIED
:DEGREES
463
root  -31.438 34.6553 0.798637 -161.374 74.547 -168.515
RightUpLeg  -10.477 -11.3528 3.87038
RightLeg  7.2765 -2.60853 -0.162398
RightFoot  5.48445 0.0292773 -0.0750553
RightToes  -21.9199 -0.0924177 -0.192076
Spine  -0.500093 0.870481 1.81023
Spine1  -0.960833 1.8344 4.36636
HEad  -44.3562 12.3701 1.33291
LeftShoulder1  -1.94126e-019 -3.10601e-018 -2.51263e-017
LeftArm  16.9963 29.8488 -71.4574
LeftForeArm  125.843 -75.5606 -133.95
LeftHand  0.0250555 0.779085 -0.746872
RightShoulder  -4.96962e-017 0 -2.36833e-017
RightArm  16.6561 -16.3779 68.0705
RightForeArm  138.661 80.5521 111.024
RightHand  0.321718 2.18834 4.75027
LeftUpLeg  -13.1046 6.43079 11.8395
LeftLeg  12.6116 9.1252 1.42571
LeftFoot  9.63501 -0.132164 1.7296
LeftToes  -30.2186 1.49739e-006 1.00523e-007
464
root  -31.4083 34.6427 1.24483 -162.019 72.494 -169.244
RightUpLeg  -10.3091 -13.3963 4.91634
RightLeg  6.70574 -2.57607 -0.13464
RightFoot  5.2221 0.0263954 -0.0598326
RightToes  -20.9795 -0.0869861 -0.184651
Spine  -0.526393 0.799303 2.03283
Spine1  -1.0148 1.69256 4.81223
HEad  -44.5191 11.523 1.43649
LeftShoulder1  -1.94126e-019 -3.10601e-018 -2.51263e-017
LeftArm  17.0236 29.9561 -71.9332
LeftForeArm  125.277 -75.699 -133.361
LeftHand  0.071987 0.946579 -2.04251
RightShoulder  -4.96962e-017 0 -2.36833e-017
RightArm  17.1542 -16.2625 67.4947
RightForeArm  138.797 80.5056 111.511
RightHand  0.312139 2.08783 4.67459
LeftUpLeg  -13.8017 5.32233 12.7118
LeftLeg  12.1885 8.35722 1.24366
LeftFoot  10.3278 -0.138623 1.69535
LeftToes  -30.6778 1.49739e-006 1.00523e-007
465
root  -31.4111 34.65 1.63514 -163.403 70.3845 -170.795
RightUpLeg  -10.306 -15.1328 5.56114
RightLeg  6.25838 -2.9505 -0.13127
RightFoot  5.00146 0.02605 -0.0802317
RightToes  -19.9688 -0.081285 -0.176572
Spine  -0.510403 0.784298 2.16087
Spine1  -0.985421 1.65905 5.06993
HEad  -44.8646 10.3467 1.44352
LeftShoulder1  -1.94126e-019 -3.10601e-018 -2.51263e-017
LeftArm  17.1194 29.7075 -72.435
LeftForeArm  124.409 -76.0003 -132.102
LeftHand  0.0573393 0.981389 -1.67318
RightShoulder  -4.96962e-017 0 -2.36833e-017
RightArm  17.8721 -16.303 66.9101
RightForeArm  138.831 80.4794 111.765
RightHand  0.293499 1.88997 4.52287
LeftUpLeg  -14.462 4.43207 13.077
LeftLeg  11.4377 7.92437 1.07411
LeftFoot  10.8439 -0.144388 1.68269
LeftToes  -28.9119 1.49739e-006 1.00523e-007
466
root  -31.4441 34.6771 1.98479 -165.141 68.2085 -172.729
RightUpLeg  -10.3792 -16.5592 5.88547
RightLeg  5.8874 -3.71525 -0.14142
RightFoot  4.80839 0.0276907 -0.129073
RightToes  -18.9494 -0.0756799 -0.168322
Spine  -0.478618 0.759664 2.1908
Spine1  -0.925978 1.61172 5.12732
HEad  -45.2654 9.08533 1.6774
LeftShoulder1  -1.94126e-019 -3.10601e-018 -2.51263e-017
LeftArm  16.9033 29.454 -72.9003
LeftForeArm  123.489 -76.2446 -130.982
LeftHand  0.0419966 0.969915 -1.25861
RightShoulder  -4.96962e-017 0 -2.36833e-017
RightArm  18.8378 -16.3369 66.4958
RightForeArm  137.506 80.5489 110.569
RightHand  0.323383 2.00038 4.91453
LeftUpLeg  -15.2169 4.03615 12.9809
LeftLeg  11.0151 8.95663 1.14627
LeftFoot  9.84741 -0.134678 1.72479
LeftToes  -24.8873 1.49739e-006 1.00523e-007
467
root  -31.4925 34.7175 2.29779 -166.92 66.037 -174.744
RightUpLeg  -10.4937 -17.7821 5.97124
RightLeg  5.53477 -4.69875 -0.150077
RightFoot  4.66741 0.0303742 -0.193568
RightToes  -18.02 -0.0706981 -0.160715
Spine  -0.435877 0.750923 2.14179
Spine1  -0.842332 1.59674 5.02688
HEad  -45.5921 7.65691 2.12295
LeftShoulder1  -1.94126e-019 -3.10601e-018 -2.51263e-017
LeftArm  16.6339 29.2431 -73.181
LeftForeArm  123.458 -76.224 -131.053
LeftHand  0.0182462 1.37488 -0.755972
RightShoulder  -4.96962e-017 0 -2.36833e-017
RightArm  19.9182 -16.3632 66.3651
RightForeArm  135.551 80.6611 108.61
RightHand  0.39021 2.07286 5.89891
LeftUpLeg  -15.9166 3.93177 12.5533
LeftLeg  10.7615 11.0326 1.36
LeftFoot  7.64962 -0.100542 1.66535
LeftToes  -19.4588 1.49739e-006 1.00523e-007
468
root  -31.572 34.7557 2.5659 -168.5 64.0638 -176.585
RightUpLeg  -10.8015 -18.8254 5.89658
RightLeg  5.45657 -5.66962 -0.173372
RightFoot  4.45403 0.0319972 -0.245262
RightToes  -17.0427 -0.0655938 -0.15263
Spine  -0.397954 0.811306 2.0255
Spine1  -0.763298 1.72083 4.792
HEad  -45.8538 6.23854 2.75662
LeftShoulder1  -1.94126e-019 -3.10601e-018 -2.51263e-017
LeftArm  16.4627 29.0733 -73.2585
LeftForeArm  124.527 -76.0221 -132.048
LeftHand  -0.00503208 1.68181 -0.131225
RightShoulder  -4.96962e-017 0 -2.36833e-017
RightArm  21.1058 -16.3842 66.4158
RightForeArm  133.262 80.7979 106.071
RightHand  0.478931 2.24894 7.09264
LeftUpLeg  -16.5702 5.19426 11.6194
LeftLeg  10.666 13.4175 1.62682
LeftFoot  6.19831 -0.0808112 1.65402
LeftToes  -16.7323 1.49739e-006 1.00523e-007
469
root  -31.6377 34.7719 2.80684 -169.507 62.2546 -177.615
RightUpLeg  -10.9016 -20.0475 5.98393
RightLeg  5.36783 -6.27901 -0.182264
RightFoot  4.23421 0.031314 -0.264477
RightToes  -16.1759 -0.0611825 -0.145387
Spine  -0.319868 0.915923 1.98862
Spine1  -0.597868 1.93062 4.71735
HEad  -46.0657 5.02131 3.33274
LeftShoulder1  -1.94126e-019 -3.10601e-018 -2.51263e-017
LeftArm  16.0034 28.9788 -73.4906
LeftForeArm  125.287 -75.9122 -132.612
LeftHand  -0.00756831 1.46452 -0.0118753
RightShoulder  -4.96962e-017 0 -2.36833e-017
RightArm  22.3812 -16.4133 66.4631
RightForeArm  132.764 80.8941 104.718
RightHand  0.529227 2.57889 7.50081
LeftUpLeg  -17.1803 8.85338 10.3278
LeftLeg  11.3282 14.5701 1.93277
LeftFoot  5.58978 -0.0717964 1.63215
LeftToes  -19.8848 1.49739e-006 1.00523e-007
470
root  -31.7138 34.7763 3.03977 -170.028 60.5862 -178.216
RightUpLeg  -11.1878 -21.6121 6.25737
RightLeg  5.36122 -6.3622 -0.18394
RightFoot  4.03766 0.0284124 -0.247924
RightToes  -15.5979 -0.0583019 -0.14052
Spine  -0.294211 1.02993 2.02192
Spine1  -0.537836 2.15672 4.78606
HEad  -46.2709 4.02869 3.69009
LeftShoulder1  -1.94126e-019 -3.10601e-018 -2.51263e-017
LeftArm  15.7159 29.0681 -73.6099
LeftForeArm  126.553 -75.6758 -133.713
LeftHand  0.00838474 1.76193 -0.58622
RightShoulder  -4.96962e-017 0 -2.36833e-017
RightArm  23.4269 -16.4214 66.5139
RightForeArm  132.614 80.9307 104.202
RightHand  0.519937 2.62581 7.31887
LeftUpLeg  -18.0031 13.2355 8.96103
LeftLeg  12.8789 14.6931 2.34993
LeftFoot  4.40312 -0.0452002 1.33728
LeftToes  -20.2532 1.49739e-006 1.00523e-007
471
root  -31.7925 34.7667 3.26508 -170.279 58.935 -178.426
RightUpLeg  -11.3815 -22.9686 6.64452
RightLeg  5.31505 -6.61086 -0.18579
RightFoot  3.86001 0.0270265 -0.243397
RightToes  -15.0474 -0.0554725 -0.135859
Spine  -0.279874 1.15002 2.1395
Spine1  -0.498107 2.39524 5.02296
HEad  -46.4626 3.12705 3.943
LeftShoulder1  -1.94126e-019 -3.10601e-018 -2.51263e-017
LeftArm  15.4993 29.114 -73.9132
LeftForeArm  126.199 -75.7632 -133.334
LeftHand  0.0114391 1.49172 -0.59235
RightShoulder  -4.96962e-017 0 -2.36833e-017
RightArm  23.9555 -16.3691 66.4093
RightForeArm  132.311 80.9195 104.176
RightHand  0.501127 2.69074 6.98527
LeftUpLeg  -18.7543 16.3259 8.02788
LeftLeg  15.0922 15.7535 3.13431
LeftFoot  3.29518 -0.0274828 1.11701
LeftToes  -19.7839 1.49739e-006 1.00523e-007
472
root  -31.8641 34.7472 3.48703 -170.249 57.3168 -178.278
RightUpLeg  -11.4763 -24.1349 7.18011
RightLeg  5.12337 -7.00888 -0.173539
RightFoot  3.76772 0.0270486 -0.257393
RightToes  -14.5205 -0.0530642 -0.131372
Spine  -0.268826 1.21207 2.27699
Spine1  -0.465109 2.51633 5.30026
HEad  -46.65 2.41977 4.34024
LeftShoulder1  -1.94126e-019 -3.10601e-018 -2.51263e-017
LeftArm  15.3775 29.2164 -74.0468
LeftForeArm  126.285 -75.788 -133.263
LeftHand  -0.000843696 1.57478 -0.239161
RightShoulder  -4.96962e-017 0 -2.36833e-017
RightArm  23.9568 -16.2153 66.4585
RightForeArm  131.659 80.9175 103.845
RightHand  0.47793 2.74585 6.60338
LeftUpLeg  -19.4134 18.2818 7.51075
LeftLeg  17.7695 17.1092 4.21999
LeftFoot  2.67446 -0.0200067 1.01862
LeftToes  -19.7481 1.49739e-006 1.00523e-007
